<?xml version="1.0" encoding="UTF-8" standalone="no"?>
<svg
   xmlns:dc="http://purl.org/dc/elements/1.1/"
   xmlns:cc="http://creativecommons.org/ns#"
   xmlns:rdf="http://www.w3.org/1999/02/22-rdf-syntax-ns#"
   xmlns:svg="http://www.w3.org/2000/svg"
   xmlns="http://www.w3.org/2000/svg"
   xmlns:sodipodi="http://sodipodi.sourceforge.net/DTD/sodipodi-0.dtd"
   xmlns:inkscape="http://www.inkscape.org/namespaces/inkscape"
   viewBox="0 0 24 24"
   class="icon-security-check"
   version="1.1"
   id="svg6"
   sodipodi:docname="role-dark.svg"
   inkscape:version="0.92.5 (2060ec1f9f, 2020-04-08)">
  <metadata
     id="metadata12">
    <rdf:RDF>
      <cc:Work
         rdf:about="">
        <dc:format>image/svg+xml</dc:format>
        <dc:type
           rdf:resource="http://purl.org/dc/dcmitype/StillImage" />
        <dc:title />
      </cc:Work>
    </rdf:RDF>
  </metadata>
  <defs
     id="defs10" />
  <sodipodi:namedview
     pagecolor="#ffffff"
     bordercolor="#666666"
     borderopacity="1"
     objecttolerance="10"
     gridtolerance="10"
     guidetolerance="10"
     inkscape:pageopacity="0"
     inkscape:pageshadow="2"
     inkscape:window-width="1920"
     inkscape:window-height="1004"
     id="namedview8"
     showgrid="false"
     inkscape:zoom="9.8333333"
     inkscape:cx="-5.2881355"
     inkscape:cy="13.322034"
     inkscape:window-x="0"
     inkscape:window-y="0"
     inkscape:window-maximized="1"
     inkscape:current-layer="svg6" />
  <path
     class="primary"
     d="M 2.779661,3.3519579 12,1.1899474 21.220339,3.3519579 v 9.7939081 a 9.220339,8.6480421 0 0 1 -5.094237,7.729187 L 12,22.810053 7.8738983,20.875053 A 9.220339,8.6480421 0 0 1 2.779661,13.145866 Z"
     id="path2"
     style="fill:#829ab1;fill-opacity:1;stroke-width:1.1162008"
     inkscape:connector-curvature="0" />
  <path
     inkscape:connector-curvature="0"
     class="secondary"
     d="M 9.3251107,17.188746 A 1.0810053,1.0810053 0 0 1 7.7576531,16.053691 L 8.2657256,13.070116 6.103715,10.962156 A 1.0810053,1.0810053 0 0 1 6.698268,9.1244467 L 9.6926525,8.6920445 11.022289,5.9787224 a 1.0810053,1.0810053 0 0 1 1.94581,0 l 1.329636,2.7025121 2.994384,0.4324022 a 1.0810053,1.0810053 0 0 1 0.594554,1.8485193 l -2.162011,2.10796 0.508073,2.983575 a 1.0810053,1.0810053 0 0 1 -1.567459,1.135055 l -2.670082,-1.405307 z"
     id="path4"
     style="fill:#486581;fill-opacity:1;stroke-width:1.08100522" />
</svg>
