<?xml version="1.0" encoding="UTF-8" standalone="no"?>
<svg
   xmlns:dc="http://purl.org/dc/elements/1.1/"
   xmlns:cc="http://creativecommons.org/ns#"
   xmlns:rdf="http://www.w3.org/1999/02/22-rdf-syntax-ns#"
   xmlns:svg="http://www.w3.org/2000/svg"
   xmlns="http://www.w3.org/2000/svg"
   xmlns:sodipodi="http://sodipodi.sourceforge.net/DTD/sodipodi-0.dtd"
   xmlns:inkscape="http://www.inkscape.org/namespaces/inkscape"
   viewBox="0 0 24 24"
   class="icon-sort-ascending"
   version="1.1"
   id="svg6"
   sodipodi:docname="sort-asc-dark.svg"
   inkscape:version="0.92.5 (2060ec1f9f, 2020-04-08)">
  <metadata
     id="metadata12">
    <rdf:RDF>
      <cc:Work
         rdf:about="">
        <dc:format>image/svg+xml</dc:format>
        <dc:type
           rdf:resource="http://purl.org/dc/dcmitype/StillImage" />
      </cc:Work>
    </rdf:RDF>
  </metadata>
  <defs
     id="defs10" />
  <sodipodi:namedview
     pagecolor="#ffffff"
     bordercolor="#666666"
     borderopacity="1"
     objecttolerance="10"
     gridtolerance="10"
     guidetolerance="10"
     inkscape:pageopacity="0"
     inkscape:pageshadow="2"
     inkscape:window-width="1920"
     inkscape:window-height="1003"
     id="namedview8"
     showgrid="false"
     inkscape:zoom="9.8333333"
     inkscape:cx="12.305085"
     inkscape:cy="12"
     inkscape:window-x="0"
     inkscape:window-y="0"
     inkscape:window-maximized="1"
     inkscape:current-layer="svg6" />
  <path
     d="m 18,15 v 5 c 0,1.333333 -2,1.333333 -2,0 v -5 h -3 c -0.879336,-0.01235 -1.315683,-1.072052 -0.7,-1.7 l 4,-4 c 0.388844,-0.3811429 1.011156,-0.3811429 1.4,0 l 4,4 c 0.615683,0.627948 0.179336,1.687648 -0.7,1.7 z"
     id="path2"
     inkscape:connector-curvature="0"
     style="fill:#829ab1"
     sodipodi:nodetypes="csscccccccc" />
  <path
     d="m 3,5 h 13 a 1,1 0 0 1 0,2 H 3 A 1,1 0 1 1 3,5 Z m 0,4 h 9 a 1,1 0 0 1 0,2 H 3 A 1,1 0 1 1 3,9 Z m 0,4 h 5 a 1,1 0 0 1 0,2 H 3 a 1,1 0 0 1 0,-2 z"
     id="path4"
     inkscape:connector-curvature="0"
     style="fill:#486581" />
</svg>
