<svg version="1.1" viewBox="0 0 24 24" xmlns="http://www.w3.org/2000/svg">
 <path d="m6 2c-2.2091 0-4 1.7909-4 4s1.7909 4 4 4c0.59 0 1.1406-0.12938 1.6406-0.35938l11.359 11.359h3v-1l-12.359-12.359c0.23-0.5 0.35938-1.0506 0.35938-1.6406 0-2.2091-1.7909-4-4-4zm0 2c1.1046 0 2 0.89543 2 2 0 1.11-0.9 2-2 2-1.1046 0-2-0.89543-2-2 0-1.11 0.9-2 2-2zm6 7.5c0.27614 0 0.5 0.22386 0.5 0.5s-0.22386 0.5-0.5 0.5-0.5-0.22386-0.5-0.5 0.22386-0.5 0.5-0.5z" fill="var(--icon-primary)"/>
 <path d="m19 3-6.9023 7.0977 2 2 7.9023-8.0977v-1zm-9 9-2.3594 2.3594s-1.0506-0.35938-1.6406-0.35938c-2.2091 0-4 1.7909-4 4s1.7909 4 4 4 4-1.7909 4-4c0-0.59-0.12938-1.1406-0.35938-1.6406l2.3594-2.3594-2-2zm-4 4c1.1046 0 2 0.89543 2 2 0 1.11-0.9 2-2 2-1.1046 0-2-0.89543-2-2 0-1.11 0.9-2 2-2z" fill="var(--icon-secondary)"/>
</svg>
