<svg viewBox='0 0 24 24'><path d="m 12.984957,4 h 3 a 1,1 0 0 1 1,1 v 3 a 1,1 0 0 1 -2,0 V 6 h -2 v 12 h 2 v -2 a 1,1 0 0 1 2,0 v 3 a 1,1 0 0 1 -1,1 h -3 v 1 a 1,1 0 0 1 -1.27,0.96 l -6.9799952,-2 a 1,1 0 0 1 -0.75,-0.96 V 5 a 1,1 0 0 1 0.75,-0.97 l 6.9799952,-2 a 1,1 0 0 1 1.27,0.97 z" fill='var(--icon-primary)'/><path d='m 20.574957,11 -1.3,-1.3 c -0.94,-0.94 0.47,-2.35 1.42,-1.4 l 3,3 a 1,1 0 0 1 0,1.4 l -3,3 c -0.95,0.95 -2.36,-0.46 -1.42,-1.4 l 1.3,-1.3 h -4.59 a 1,1 0 0 1 0,-2 z' fill='var(--icon-secondary)'/></svg>
