<svg version="1.1" viewBox="0 0 24 24" xmlns="http://www.w3.org/2000/svg">
 <path d="m12 2c-5.5228 0-10 4.4772-10 10 0 5.5228 4.4772 10 10 10 5.5228 0 10-4.4772 10-10 0-5.5228-4.4772-10-10-10zm0.98242 1.6816c0.26652-0.00123 0.52824 0.03729 0.77148 0.11523 0.97296 0.31178 1.8167 1.3112 1.8242 2.4844v2.1406h0.23437c2.0304 0.00936 3.3065 2.4964 2.1289 4.1504l-2e-3 2e-3 -4.7598 6.6641-0.0039 0.0039c-0.68793 0.9503-1.9567 1.2727-2.9296 0.9609-0.97296-0.31178-1.8167-1.3112-1.8242-2.4844v-2.1407h-0.23438c-2.0304-0.009317-3.3066-2.4964-2.1289-4.1504l0.00195-2e-3 4.7598-6.6641 0.0039-0.00391c0.51598-0.71275 1.3587-1.0725 2.1582-1.0762z" fill="var(--icon-secondary)"/>
 <path d="m13.903 10.097h1.9028a0.9514 0.9514 0 0 1 0.77063 1.5032l-4.757 6.6598a0.9514 0.9514 0 0 1-1.722-0.55181v-3.8056h-1.9028a0.9514 0.9514 0 0 1-0.77063-1.5032l4.757-6.6598a0.9514 0.9514 0 0 1 1.722 0.55181z" fill="var(--icon-primary)" stroke-width=".951"/>
</svg>
