<?xml version="1.0" encoding="UTF-8" standalone="no"?>
<svg
   xmlns:dc="http://purl.org/dc/elements/1.1/"
   xmlns:cc="http://creativecommons.org/ns#"
   xmlns:rdf="http://www.w3.org/1999/02/22-rdf-syntax-ns#"
   xmlns:svg="http://www.w3.org/2000/svg"
   xmlns="http://www.w3.org/2000/svg"
   xmlns:sodipodi="http://sodipodi.sourceforge.net/DTD/sodipodi-0.dtd"
   xmlns:inkscape="http://www.inkscape.org/namespaces/inkscape"
   viewBox="0 0 24 24"
   class="icon-document-notes"
   version="1.1"
   id="svg6"
   sodipodi:docname="ext-pdf-color.svg"
   inkscape:version="1.0 (b51213c273, 2020-08-10)">
  <metadata
     id="metadata12">
    <rdf:RDF>
      <cc:Work
         rdf:about="">
        <dc:format>image/svg+xml</dc:format>
        <dc:type
           rdf:resource="http://purl.org/dc/dcmitype/StillImage" />
      </cc:Work>
    </rdf:RDF>
  </metadata>
  <defs
     id="defs10" />
  <sodipodi:namedview
     pagecolor="#ffffff"
     bordercolor="#666666"
     borderopacity="1"
     objecttolerance="10"
     gridtolerance="10"
     guidetolerance="10"
     inkscape:pageopacity="0"
     inkscape:pageshadow="2"
     inkscape:window-width="640"
     inkscape:window-height="480"
     id="namedview8"
     showgrid="false"
     inkscape:zoom="41.896077"
     inkscape:cx="8.2463552"
     inkscape:cy="12.702167"
     inkscape:current-layer="svg6" />
  <path
     id="path2"
     style="fill:#ff6d78;fill-opacity:1"
     d="M 6 2 C 4.9 2 4 2.9 4 4 L 4 20 C 4 21.104569 4.8954305 22 6 22 L 18 22 C 19.104569 22 20 21.104569 20 20 L 20 10 L 14 10 C 12.9 10 12 9.1 12 8 L 12 2 L 6 2 z M 11.533203 10.615234 L 11.742188 10.615234 C 11.951407 10.615234 12.108711 10.667306 12.265625 10.824219 C 12.788671 11.399569 12.527148 12.759026 12.265625 13.857422 C 12.213315 13.909725 12.214844 13.962891 12.214844 13.962891 C 12.580976 14.904374 13.051173 15.688984 13.574219 16.107422 C 13.783437 16.264335 14.045118 16.421212 14.306641 16.578125 C 14.672773 16.525815 15.038166 16.525391 15.404297 16.525391 C 16.450389 16.525391 17.078321 16.683127 17.339844 17.101562 C 17.444457 17.206171 17.445312 17.362616 17.445312 17.519531 C 17.393008 17.728749 17.340507 17.93879 17.183594 18.095703 C 17.02668 18.252612 16.764568 18.355469 16.398438 18.355469 C 15.770782 18.355469 14.723592 18.146952 13.886719 17.728516 C 12.422192 17.885429 11.377459 18.093946 10.488281 18.355469 C 10.435981 18.355469 10.382388 18.408203 10.330078 18.408203 C 9.2839857 20.238864 8.5002713 21.023438 7.8203125 21.023438 C 7.7157026 21.023438 7.5596915 20.972232 7.4550781 20.919922 L 7.0351562 20.658203 L 7.0351562 20.605469 C 6.9828493 20.500859 6.9828493 20.344414 7.0351562 20.1875 C 7.0874606 19.769064 7.6116816 19.035859 8.6054688 18.408203 C 8.7623819 18.303595 9.0240622 18.147147 9.3378906 17.990234 C 9.5471079 17.571797 9.8595713 17.048007 10.121094 16.472656 C 10.591836 15.583479 10.853283 14.74746 11.0625 13.962891 C 10.748669 12.969105 10.539687 12.340583 10.853516 11.242188 C 10.958124 10.928359 11.219376 10.615234 11.533203 10.615234 z M 11.691406 11.085938 C 11.639102 11.085938 11.638248 11.139096 11.585938 11.191406 C 11.481333 11.557537 11.482187 12.131447 11.691406 12.916016 C 11.796009 12.654493 11.795346 12.445547 11.847656 12.236328 L 11.847656 12.080078 C 11.95226 11.609337 11.951836 11.34789 11.794922 11.138672 L 11.691406 11.085938 z M 11.691406 14.904297 C 11.534492 15.531951 11.219648 16.211094 10.853516 16.943359 C 10.696602 17.257186 10.487857 17.572461 10.435547 17.833984 L 10.541016 17.78125 C 11.639413 17.362812 12.632969 17.100707 13.365234 16.996094 C 13.20832 16.94379 13.10266 16.838988 12.998047 16.734375 C 12.475001 16.263634 12.057538 15.688865 11.691406 14.904297 z M 15.248047 17.205078 C 15.195743 17.205078 15.091373 17.205933 15.039062 17.310547 C 15.666717 17.57207 16.294024 17.728516 16.660156 17.728516 L 16.869141 17.728516 C 16.921451 17.676213 16.921875 17.675357 16.921875 17.623047 C 16.921875 17.570744 16.921451 17.571841 16.869141 17.519531 C 16.764531 17.414922 16.451053 17.205078 15.248047 17.205078 z M 9.1796875 18.775391 C 8.970469 18.879999 8.8663321 18.984799 8.7617188 19.037109 C 8.1340642 19.560154 7.7671507 20.135392 7.7148438 20.449219 C 8.0809765 20.292306 8.5520331 19.769178 9.1796875 18.775391 z " />
  <polygon
     fill="#486581"
     points="14 2 20 8 14 8"
     id="polygon4"
     style="fill:#b60706;fill-opacity:1" />
</svg>
