<?xml version="1.0" encoding="UTF-8" standalone="no"?>
<svg
   xmlns:dc="http://purl.org/dc/elements/1.1/"
   xmlns:cc="http://creativecommons.org/ns#"
   xmlns:rdf="http://www.w3.org/1999/02/22-rdf-syntax-ns#"
   xmlns:svg="http://www.w3.org/2000/svg"
   xmlns="http://www.w3.org/2000/svg"
   xmlns:sodipodi="http://sodipodi.sourceforge.net/DTD/sodipodi-0.dtd"
   xmlns:inkscape="http://www.inkscape.org/namespaces/inkscape"
   viewBox="0 0 24 24"
   class="icon-help"
   version="1.1"
   id="svg6"
   sodipodi:docname="ext-unknown-color.svg"
   inkscape:version="1.0 (b51213c273, 2020-08-10)">
  <metadata
     id="metadata12">
    <rdf:RDF>
      <cc:Work
         rdf:about="">
        <dc:format>image/svg+xml</dc:format>
        <dc:type
           rdf:resource="http://purl.org/dc/dcmitype/StillImage" />
      </cc:Work>
    </rdf:RDF>
  </metadata>
  <defs
     id="defs10" />
  <sodipodi:namedview
     pagecolor="#ffffff"
     bordercolor="#666666"
     borderopacity="1"
     objecttolerance="10"
     gridtolerance="10"
     guidetolerance="10"
     inkscape:pageopacity="0"
     inkscape:pageshadow="2"
     inkscape:window-width="640"
     inkscape:window-height="480"
     id="namedview8"
     showgrid="false"
     inkscape:zoom="7.40625"
     inkscape:cx="-46.48699"
     inkscape:cy="-15.086859"
     inkscape:current-layer="svg6" />
  <path
     fill="#829ab1"
     d="M 12,20.78481 A 8.7848101,8.7848101 0 1 1 12,3.2151898 8.7848101,8.7848101 0 0 1 12,20.78481 Z"
     id="path2"
     style="stroke-width:1" />
  <path
     fill="#d9e2ec"
     d="m 12,18.588607 a 1.3177215,1.3177215 0 1 1 0,-2.635443 1.3177215,1.3177215 0 0 1 0,2.635443 z m 0.878481,-4.831645 a 0.87848101,0.87848101 0 0 1 -1.756962,0 v -1.238658 a 0.87848101,0.87848101 0 0 1 0.483164,-0.790633 l 2.152279,-1.045393 c 0.562228,-0.368962 0.878481,-0.8521262 0.878481,-1.3177211 0,-0.9048355 -1.142025,-1.756962 -2.635443,-1.756962 -1.185949,0 -2.1874178,0.5446582 -2.5212406,1.2562278 A 0.87848101,0.87848101 0 0 1 7.8974936,8.108329 C 8.5299999,6.7378987 10.172759,5.8506328 12,5.8506328 c 2.371899,0 4.392405,1.5109874 4.392405,3.5139241 0,1.1420251 -0.667646,2.1610631 -1.800886,2.8462781 l -1.713038,0.843342 z"
     id="path4"
     style="stroke-width:1" />
</svg>
