<?xml version="1.0" encoding="UTF-8" standalone="no"?>
<svg
   xmlns:dc="http://purl.org/dc/elements/1.1/"
   xmlns:cc="http://creativecommons.org/ns#"
   xmlns:rdf="http://www.w3.org/1999/02/22-rdf-syntax-ns#"
   xmlns:svg="http://www.w3.org/2000/svg"
   xmlns="http://www.w3.org/2000/svg"
   xmlns:sodipodi="http://sodipodi.sourceforge.net/DTD/sodipodi-0.dtd"
   xmlns:inkscape="http://www.inkscape.org/namespaces/inkscape"
   viewBox="0 0 24 24"
   class="icon-document-notes"
   version="1.1"
   id="svg6"
   sodipodi:docname="ext-sheet-color.svg"
   inkscape:version="1.0 (b51213c273, 2020-08-10)">
  <metadata
     id="metadata12">
    <rdf:RDF>
      <cc:Work
         rdf:about="">
        <dc:format>image/svg+xml</dc:format>
        <dc:type
           rdf:resource="http://purl.org/dc/dcmitype/StillImage" />
      </cc:Work>
    </rdf:RDF>
  </metadata>
  <defs
     id="defs10" />
  <sodipodi:namedview
     pagecolor="#ffffff"
     bordercolor="#666666"
     borderopacity="1"
     objecttolerance="10"
     gridtolerance="10"
     guidetolerance="10"
     inkscape:pageopacity="0"
     inkscape:pageshadow="2"
     inkscape:window-width="640"
     inkscape:window-height="480"
     id="namedview8"
     showgrid="false"
     inkscape:zoom="2.6185048"
     inkscape:cx="-173.54259"
     inkscape:cy="79.299935"
     inkscape:current-layer="svg6" />
  <path
     id="path2"
     d="M 6 2 C 4.9 2 4 2.9 4 4 L 4 20 C 4 21.104569 4.8954305 22 6 22 L 18 22 C 19.104569 22 20 21.104569 20 20 L 20 10 L 14 10 C 12.9 10 12 9.1 12 8 L 12 2 L 6 2 z M 9.0273438 11.541016 L 10.964844 11.541016 L 12.09375 14.416016 L 13.220703 11.541016 L 15.158203 11.541016 L 13.191406 15.693359 L 15.205078 19.914062 L 13.244141 19.914062 L 12.09375 16.986328 L 10.949219 19.914062 L 8.9863281 19.914062 L 11 15.693359 L 9.0273438 11.541016 z "
     style="fill:#32bf7d;fill-opacity:1" />
  <polygon
     fill="#175935"
     points="14 2 20 8 14 8"
     id="polygon4" />
  <g
     aria-label="X"
     id="text839"
     style="font-style:normal;font-variant:normal;font-weight:bold;font-stretch:normal;font-size:11.7792px;line-height:125%;font-family:'Roboto Condensed';-inkscape-font-specification:'Roboto Condensed,  Bold';letter-spacing:0px;word-spacing:0px;fill:#000000;fill-opacity:1;stroke:none;stroke-width:1px;stroke-linecap:butt;stroke-linejoin:miter;stroke-opacity:1" />
</svg>
