<?xml version="1.0" encoding="UTF-8" standalone="no"?>
<svg
   xmlns:dc="http://purl.org/dc/elements/1.1/"
   xmlns:cc="http://creativecommons.org/ns#"
   xmlns:rdf="http://www.w3.org/1999/02/22-rdf-syntax-ns#"
   xmlns:svg="http://www.w3.org/2000/svg"
   xmlns="http://www.w3.org/2000/svg"
   xmlns:sodipodi="http://sodipodi.sourceforge.net/DTD/sodipodi-0.dtd"
   xmlns:inkscape="http://www.inkscape.org/namespaces/inkscape"
   viewBox="0 0 24 24"
   class="icon-launch"
   version="1.1"
   id="svg8"
   sodipodi:docname="favi.svg"
   inkscape:version="0.92.5 (2060ec1f9f, 2020-04-08)">
  <metadata
     id="metadata14">
    <rdf:RDF>
      <cc:Work
         rdf:about="">
        <dc:format>image/svg+xml</dc:format>
        <dc:type
           rdf:resource="http://purl.org/dc/dcmitype/StillImage" />
        <dc:title></dc:title>
      </cc:Work>
    </rdf:RDF>
  </metadata>
  <defs
     id="defs12" />
  <sodipodi:namedview
     pagecolor="#ffffff"
     bordercolor="#666666"
     borderopacity="1"
     objecttolerance="10"
     gridtolerance="10"
     guidetolerance="10"
     inkscape:pageopacity="0"
     inkscape:pageshadow="2"
     inkscape:window-width="1920"
     inkscape:window-height="1003"
     id="namedview10"
     showgrid="false"
     inkscape:zoom="9.8333333"
     inkscape:cx="12.305085"
     inkscape:cy="12"
     inkscape:window-x="0"
     inkscape:window-y="0"
     inkscape:window-maximized="1"
     inkscape:current-layer="svg8" />
  <g
     id="g6"
     transform="matrix(1.1951052,0,0,1.1951052,-1.4264844,-3.2560451)">
    <path
       d="m 14.57,6.96 a 2,2 0 0 1 2.47,2.47 c 0.29,0.17 0.5,0.47 0.5,0.86 v 7.07 a 1,1 0 0 1 -0.3,0.71 L 13,22.31 a 1,1 0 0 1 -1.7,-0.7 v -3.58 l -0.49,0.19 A 1,1 0 0 1 9.64,17.85 14.1,14.1 0 0 0 6.14,14.35 1,1 0 0 1 5.78,13.19 L 5.97,12.71 H 2.39 A 1,1 0 0 1 1.7,11 L 5.94,6.76 a 1,1 0 0 1 0.7,-0.3 h 7.08 c 0.39,0 0.7,0.21 0.86,0.5 z m -1.38,2.44 -2.15,2.15 a 3,3 0 0 1 0.84,0.57 3,3 0 0 1 0.57,0.84 L 14.6,10.81 A 2,2 0 0 1 13.2,9.4 Z m 6.98,-6.61 a 1,1 0 0 1 1.04,1.04 C 21.18,4.69 21.08,5.54 20.91,6.38 20.44,5.78 18.92,6.19 18.36,5.64 17.81,5.08 18.22,3.56 17.62,3.09 c 0.84,-0.17 1.7,-0.27 2.55,-0.3 z"
       id="path2"
       inkscape:connector-curvature="0"
       style="fill:#38bec9" />
    <path
       d="M 7.23,10.26 A 16.05,16.05 0 0 1 17.62,3.1 19.2,19.2 0 0 1 20.91,6.39 15.94,15.94 0 0 1 13.74,16.79 19.05,19.05 0 0 0 7.23,10.27 Z m -0.86,5.5 a 16.2,16.2 0 0 1 1.87,1.87 1,1 0 0 1 -0.47,1.6 c -0.79,0.25 -1.6,0.42 -2.4,0.54 A 1,1 0 0 1 4.23,18.64 c 0.12,-0.82 0.3,-1.62 0.53,-2.41 a 1,1 0 0 1 1.6,-0.47 z m 7.34,-5.47 a 2.0011122,2.0011122 0 1 0 2.83,-2.83 2.0011122,2.0011122 0 0 0 -2.83,2.83 z"
       id="path4"
       inkscape:connector-curvature="0"
       style="fill:#87eaf2" />
  </g>
</svg>
