<?xml version="1.0" encoding="UTF-8" standalone="no"?>
<svg
   xmlns:dc="http://purl.org/dc/elements/1.1/"
   xmlns:cc="http://creativecommons.org/ns#"
   xmlns:rdf="http://www.w3.org/1999/02/22-rdf-syntax-ns#"
   xmlns:svg="http://www.w3.org/2000/svg"
   xmlns="http://www.w3.org/2000/svg"
   xmlns:sodipodi="http://sodipodi.sourceforge.net/DTD/sodipodi-0.dtd"
   xmlns:inkscape="http://www.inkscape.org/namespaces/inkscape"
   viewBox="0 0 24 24"
   class="icon-globe"
   version="1.1"
   id="svg6"
   sodipodi:docname="globe-dark.svg"
   inkscape:version="1.0 (b51213c273, 2020-08-10)">
  <metadata
     id="metadata12">
    <rdf:RDF>
      <cc:Work
         rdf:about="">
        <dc:format>image/svg+xml</dc:format>
        <dc:type
           rdf:resource="http://purl.org/dc/dcmitype/StillImage" />
      </cc:Work>
    </rdf:RDF>
  </metadata>
  <defs
     id="defs10" />
  <sodipodi:namedview
     pagecolor="#ffffff"
     bordercolor="#666666"
     borderopacity="1"
     objecttolerance="10"
     gridtolerance="10"
     guidetolerance="10"
     inkscape:pageopacity="0"
     inkscape:pageshadow="2"
     inkscape:window-width="640"
     inkscape:window-height="480"
     id="namedview8"
     showgrid="false"
     inkscape:zoom="59.25"
     inkscape:cx="12"
     inkscape:cy="11.235449"
     inkscape:current-layer="svg6" />
  <circle
     cx="12"
     cy="12"
     fill="#102a43"
     id="circle2"
     r="9.7299576"
     style="stroke-width:0.999996" />
  <path
     fill="#9fb3c8"
     d="M2.05 11A10 10 0 0 1 15 2.46V6a2 2 0 0 1-2 2h-1v1a2 2 0 0 1-1 1.73V12h2a2 2 0 0 1 2 2v1h2a2 2 0 0 1 2 2v2.14A9.97 9.97 0 0 1 12 22v-4h-1a2 2 0 0 1-2-2v-2a2 2 0 0 1-2-2v-1H2.05z"
     id="path4" />
</svg>
