<?xml version="1.0" encoding="UTF-8" standalone="no"?>
<svg
   xmlns:dc="http://purl.org/dc/elements/1.1/"
   xmlns:cc="http://creativecommons.org/ns#"
   xmlns:rdf="http://www.w3.org/1999/02/22-rdf-syntax-ns#"
   xmlns:svg="http://www.w3.org/2000/svg"
   xmlns="http://www.w3.org/2000/svg"
   xmlns:sodipodi="http://sodipodi.sourceforge.net/DTD/sodipodi-0.dtd"
   xmlns:inkscape="http://www.inkscape.org/namespaces/inkscape"
   viewBox="0 0 24 24"
   class="icon-door-exit"
   version="1.1"
   id="svg6"
   sodipodi:docname="logout-dark.svg"
   inkscape:version="1.0 (b51213c273, 2020-08-10)">
  <metadata
     id="metadata12">
    <rdf:RDF>
      <cc:Work
         rdf:about="">
        <dc:format>image/svg+xml</dc:format>
        <dc:type
           rdf:resource="http://purl.org/dc/dcmitype/StillImage" />
      </cc:Work>
    </rdf:RDF>
  </metadata>
  <defs
     id="defs10" />
  <sodipodi:namedview
     pagecolor="#ffffff"
     bordercolor="#666666"
     borderopacity="1"
     objecttolerance="10"
     gridtolerance="10"
     guidetolerance="10"
     inkscape:pageopacity="0"
     inkscape:pageshadow="2"
     inkscape:window-width="640"
     inkscape:window-height="480"
     id="namedview8"
     showgrid="false"
     inkscape:zoom="27.708333"
     inkscape:cx="12"
     inkscape:cy="12"
     inkscape:current-layer="svg6" />
  <path
     fill="#829ab1"
     d="m 12.154887,4 h 3 a 1,1 0 0 1 1,1 v 3 a 1,1 0 0 1 -2,0 V 6 h -2 v 12 h 2 v -2 a 1,1 0 0 1 2,0 v 3 a 1,1 0 0 1 -1,1 h -3 v 1 a 1,1 0 0 1 -1.27,0.96 l -6.9799998,-2 a 1,1 0 0 1 -0.75,-0.96 V 5 a 1,1 0 0 1 0.75,-0.97 l 6.9799998,-2 a 1,1 0 0 1 1.27,0.97 z"
     id="path2" />
  <path
     fill="#486581"
     d="m 19.744887,11 -1.3,-1.3 c -0.94,-0.94 0.47,-2.35 1.42,-1.4 l 3,3 a 1,1 0 0 1 0,1.4 l -3,3 c -0.95,0.95 -2.36,-0.46 -1.42,-1.4 l 1.3,-1.3 h -4.59 a 1,1 0 0 1 0,-2 z"
     id="path4" />
</svg>
