<?xml version="1.0" encoding="UTF-8" standalone="no"?>
<svg
   xmlns:dc="http://purl.org/dc/elements/1.1/"
   xmlns:cc="http://creativecommons.org/ns#"
   xmlns:rdf="http://www.w3.org/1999/02/22-rdf-syntax-ns#"
   xmlns:svg="http://www.w3.org/2000/svg"
   xmlns="http://www.w3.org/2000/svg"
   xmlns:sodipodi="http://sodipodi.sourceforge.net/DTD/sodipodi-0.dtd"
   xmlns:inkscape="http://www.inkscape.org/namespaces/inkscape"
   viewBox="0 0 24 24"
   class="icon-launch"
   version="1.1"
   id="svg8"
   sodipodi:docname="serve.svg"
   inkscape:version="0.92.5 (2060ec1f9f, 2020-04-08)">
  <metadata
     id="metadata14">
    <rdf:RDF>
      <cc:Work
         rdf:about="">
        <dc:format>image/svg+xml</dc:format>
        <dc:type
           rdf:resource="http://purl.org/dc/dcmitype/StillImage" />
        <dc:title></dc:title>
      </cc:Work>
    </rdf:RDF>
  </metadata>
  <defs
     id="defs12" />
  <sodipodi:namedview
     pagecolor="#ffffff"
     bordercolor="#666666"
     borderopacity="1"
     objecttolerance="10"
     gridtolerance="10"
     guidetolerance="10"
     inkscape:pageopacity="0"
     inkscape:pageshadow="2"
     inkscape:window-width="1920"
     inkscape:window-height="1003"
     id="namedview10"
     showgrid="false"
     inkscape:zoom="9.8333333"
     inkscape:cx="12.305085"
     inkscape:cy="12"
     inkscape:window-x="0"
     inkscape:window-y="0"
     inkscape:window-maximized="1"
     inkscape:current-layer="svg8" />
  <g
     id="g6">
    <path
       d="M14.57 6.96a2 2 0 0 1 2.47 2.47c.29.17.5.47.5.86v7.07a1 1 0 0 1-.3.71L13 22.31a1 1 0 0 1-1.7-.7v-3.58l-.49.19a1 1 0 0 1-1.17-.37 14.1 14.1 0 0 0-3.5-3.5 1 1 0 0 1-.36-1.16l.19-.48H2.39A1 1 0 0 1 1.7 11l4.24-4.24a1 1 0 0 1 .7-.3h7.08c.39 0 .7.21.86.5zM13.19 9.4l-2.15 2.15a3 3 0 0 1 .84.57 3 3 0 0 1 .57.84l2.15-2.15A2 2 0 0 1 13.2 9.4zm6.98-6.61a1 1 0 0 1 1.04 1.04c-.03.86-.13 1.71-.3 2.55-.47-.6-1.99-.19-2.55-.74-.55-.56-.14-2.08-.74-2.55.84-.17 1.7-.27 2.55-.3z"
       id="path2"
       fill="#38bec9" />
    <path
       d="M7.23 10.26A16.05 16.05 0 0 1 17.62 3.1a19.2 19.2 0 0 1 3.29 3.29 15.94 15.94 0 0 1-7.17 10.4 19.05 19.05 0 0 0-6.51-6.52zm-.86 5.5a16.2 16.2 0 0 1 1.87 1.87 1 1 0 0 1-.47 1.6c-.79.25-1.6.42-2.4.54a1 1 0 0 1-1.14-1.13c.12-.82.3-1.62.53-2.41a1 1 0 0 1 1.6-.47zm7.34-5.47a2 2 0 1 0 2.83-2.83 2 2 0 0 0-2.83 2.83z"
       id="path4"
       fill="#87eaf2" />
  </g>
</svg>
