<?xml version="1.0" encoding="UTF-8" standalone="no"?>
<svg
   xmlns:dc="http://purl.org/dc/elements/1.1/"
   xmlns:cc="http://creativecommons.org/ns#"
   xmlns:rdf="http://www.w3.org/1999/02/22-rdf-syntax-ns#"
   xmlns:svg="http://www.w3.org/2000/svg"
   xmlns="http://www.w3.org/2000/svg"
   xmlns:sodipodi="http://sodipodi.sourceforge.net/DTD/sodipodi-0.dtd"
   xmlns:inkscape="http://www.inkscape.org/namespaces/inkscape"
   viewBox="0 0 24 24"
   class="icon-sort-decending"
   version="1.1"
   id="svg18"
   sodipodi:docname="sort-desc-dark.svg"
   inkscape:version="0.92.5 (2060ec1f9f, 2020-04-08)">
  <metadata
     id="metadata24">
    <rdf:RDF>
      <cc:Work
         rdf:about="">
        <dc:format>image/svg+xml</dc:format>
        <dc:type
           rdf:resource="http://purl.org/dc/dcmitype/StillImage" />
      </cc:Work>
    </rdf:RDF>
  </metadata>
  <defs
     id="defs22" />
  <sodipodi:namedview
     pagecolor="#ffffff"
     bordercolor="#666666"
     borderopacity="1"
     objecttolerance="10"
     gridtolerance="10"
     guidetolerance="10"
     inkscape:pageopacity="0"
     inkscape:pageshadow="2"
     inkscape:window-width="1920"
     inkscape:window-height="1003"
     id="namedview20"
     showgrid="false"
     inkscape:zoom="9.8333333"
     inkscape:cx="18.254237"
     inkscape:cy="12"
     inkscape:window-x="1920"
     inkscape:window-y="0"
     inkscape:window-maximized="1"
     inkscape:current-layer="svg18" />
  <path
     d="M 6,9 V 4 C 6,2.6666672 8,2.6666672 8,4 v 5 h 3 c 0.879336,0.012353 1.315683,1.072052 0.7,1.7 l -4,4 c -0.3888435,0.381143 -1.0111565,0.381143 -1.4,0 l -4,-4 C 1.6843174,10.072052 2.1206641,9.0123525 3,9 Z"
     id="path14"
     inkscape:connector-curvature="0"
     style="fill:#829ab1"
     sodipodi:nodetypes="csscccccccc" />
  <path
     d="M 21,19 H 8 a 1,1 0 0 1 0,-2 h 13 a 1,1 0 0 1 0,2 z m 0,-4 h -9 a 1,1 0 0 1 0,-2 h 9 a 1,1 0 0 1 0,2 z m 0,-4 h -5 a 1,1 0 0 1 0,-2 h 5 a 1,1 0 0 1 0,2 z"
     id="path16"
     inkscape:connector-curvature="0"
     style="fill:#486581" />
</svg>
