<?xml version="1.0" encoding="UTF-8" standalone="no"?>
<svg
   xmlns:dc="http://purl.org/dc/elements/1.1/"
   xmlns:cc="http://creativecommons.org/ns#"
   xmlns:rdf="http://www.w3.org/1999/02/22-rdf-syntax-ns#"
   xmlns:svg="http://www.w3.org/2000/svg"
   xmlns="http://www.w3.org/2000/svg"
   id="svg4"
   viewBox="0 0 24 24"
   height="24"
   width="24"
   version="1.1">
  <metadata
     id="metadata10">
    <rdf:RDF>
      <cc:Work
         rdf:about="">
        <dc:format>image/svg+xml</dc:format>
        <dc:type
           rdf:resource="http://purl.org/dc/dcmitype/StillImage" />
        <dc:title></dc:title>
      </cc:Work>
    </rdf:RDF>
  </metadata>
  <defs
     id="defs8" />
  <path
     style="stroke-width:0.80585515"
     id="path2"
     d="m 20.864407,10.461356 v 1.611711 h -3.537704 c 0.805855,1.72453 0.765562,6.446841 -5.020478,6.446841 C 5.5934515,18.560198 5.8513251,13.28185 5.8513251,13.28185 l 3.199245,0.04029 c 0.024176,2.715732 2.5465019,2.715732 3.0461329,2.683497 0.515747,-0.04029 2.441741,-0.03223 2.594853,-1.917935 0.06447,-0.878382 -0.821972,-1.547242 -1.788998,-2.014637 H 3.1355932 v -1.61171 H 20.864407 m -2.89302,-3.3120625 -3.207304,-0.024176 c 0,0 0.136995,-2.2322187 -2.643205,-2.2402773 C 9.340678,4.8687235 9.5824345,6.6577219 9.5824345,6.8833613 9.6146687,7.1090008 9.8564253,8.2210809 12,8.7529453 H 6.931171 c 0,0 -2.8124345,-5.4234053 4.053452,-6.3501386 7.018998,-0.9670263 7.002881,4.7626039 6.986764,4.7464858 z" />
</svg>
