<?xml version="1.0" encoding="UTF-8" standalone="no"?>
<svg
   xmlns:dc="http://purl.org/dc/elements/1.1/"
   xmlns:cc="http://creativecommons.org/ns#"
   xmlns:rdf="http://www.w3.org/1999/02/22-rdf-syntax-ns#"
   xmlns:svg="http://www.w3.org/2000/svg"
   xmlns="http://www.w3.org/2000/svg"
   xmlns:sodipodi="http://sodipodi.sourceforge.net/DTD/sodipodi-0.dtd"
   xmlns:inkscape="http://www.inkscape.org/namespaces/inkscape"
   viewBox="0 0 24 24"
   class="icon-document-notes"
   version="1.1"
   id="svg6"
   sodipodi:docname="ext-slideshow-color.svg"
   inkscape:version="1.0 (b51213c273, 2020-08-10)">
  <metadata
     id="metadata12">
    <rdf:RDF>
      <cc:Work
         rdf:about="">
        <dc:format>image/svg+xml</dc:format>
        <dc:type
           rdf:resource="http://purl.org/dc/dcmitype/StillImage" />
      </cc:Work>
    </rdf:RDF>
  </metadata>
  <defs
     id="defs10" />
  <sodipodi:namedview
     pagecolor="#ffffff"
     bordercolor="#666666"
     borderopacity="1"
     objecttolerance="10"
     gridtolerance="10"
     guidetolerance="10"
     inkscape:pageopacity="0"
     inkscape:pageshadow="2"
     inkscape:window-width="640"
     inkscape:window-height="480"
     id="namedview8"
     showgrid="false"
     inkscape:zoom="5.2370096"
     inkscape:cx="-25.754319"
     inkscape:cy="-7.5313196"
     inkscape:current-layer="svg6" />
  <path
     id="path2"
     style="fill:#f88b67;fill-opacity:1"
     d="M 6 2 C 4.9 2 4 2.9 4 4 L 4 20 C 4 21.104569 4.8954305 22 6 22 L 18 22 C 19.104569 22 20 21.104569 20 20 L 20 10 L 14 10 C 12.9 10 12 9.1 12 8 L 12 2 L 6 2 z M 9.1308594 11.347656 L 12.248047 11.347656 C 13.152983 11.347656 13.873898 11.628058 14.410156 12.189453 C 14.950604 12.750848 15.220703 13.478443 15.220703 14.375 C 15.220703 15.271557 14.953944 15.9805 14.421875 16.5 C 13.889806 17.019501 13.151626 17.279297 12.208984 17.279297 L 10.978516 17.279297 L 10.978516 20.496094 L 9.1308594 20.496094 L 9.1308594 11.347656 z M 10.978516 12.886719 L 10.978516 15.740234 L 12.248047 15.740234 C 12.599967 15.740234 12.871736 15.624955 13.064453 15.394531 C 13.257171 15.164108 13.353516 14.828571 13.353516 14.388672 C 13.353516 13.932015 13.255501 13.568911 13.058594 13.300781 C 12.861686 13.028463 12.596597 12.890908 12.265625 12.886719 L 10.978516 12.886719 z " />
  <polygon
     fill="#B83519"
     points="14 2 20 8 14 8"
     id="polygon4" />
  <g
     aria-label="P"
     id="text839"
     style="font-style:normal;font-weight:normal;font-size:12.8702px;line-height:125%;font-family:sans-serif;letter-spacing:0px;word-spacing:0px;fill:#000000;fill-opacity:1;stroke:none;stroke-width:0.999999px;stroke-linecap:butt;stroke-linejoin:miter;stroke-opacity:1" />
</svg>
