<?xml version="1.0" encoding="UTF-8" standalone="no"?>
<svg
   xmlns:dc="http://purl.org/dc/elements/1.1/"
   xmlns:cc="http://creativecommons.org/ns#"
   xmlns:rdf="http://www.w3.org/1999/02/22-rdf-syntax-ns#"
   xmlns:svg="http://www.w3.org/2000/svg"
   xmlns="http://www.w3.org/2000/svg"
   xmlns:sodipodi="http://sodipodi.sourceforge.net/DTD/sodipodi-0.dtd"
   xmlns:inkscape="http://www.inkscape.org/namespaces/inkscape"
   height="24px"
   viewBox="0 0 24 24"
   width="24px"
   fill="#000000"
   version="1.1"
   id="svg6"
   sodipodi:docname="external-dark.svg"
   inkscape:version="0.92.5 (2060ec1f9f, 2020-04-08)">
  <metadata
     id="metadata12">
    <rdf:RDF>
      <cc:Work
         rdf:about="">
        <dc:format>image/svg+xml</dc:format>
        <dc:type
           rdf:resource="http://purl.org/dc/dcmitype/StillImage" />
      </cc:Work>
    </rdf:RDF>
  </metadata>
  <defs
     id="defs10" />
  <sodipodi:namedview
     pagecolor="#ffffff"
     bordercolor="#666666"
     borderopacity="1"
     objecttolerance="10"
     gridtolerance="10"
     guidetolerance="10"
     inkscape:pageopacity="0"
     inkscape:pageshadow="2"
     inkscape:window-width="1920"
     inkscape:window-height="1004"
     id="namedview8"
     showgrid="false"
     inkscape:zoom="27.812867"
     inkscape:cx="11.949408"
     inkscape:cy="18.236142"
     inkscape:window-x="1920"
     inkscape:window-y="0"
     inkscape:window-maximized="1"
     inkscape:current-layer="svg6" />
  <path
     d="M 2.2372882,2.2372882 H 21.762712 V 21.762712 H 2.2372882 Z"
     id="path2"
     inkscape:connector-curvature="0"
     style="fill:none;stroke-width:0.81355929" />
  <path
     d="M 16.881356,17.694916 H 7.118644 c -0.4474576,0 -0.8135593,-0.366103 -0.8135593,-0.81356 V 7.118644 c 0,-0.4474576 0.3661017,-0.8135593 0.8135593,-0.8135593 h 3.661016 c 0.447458,0 0.81356,-0.3661016 0.81356,-0.8135593 0,-0.4474576 -0.366102,-0.8135594 -0.81356,-0.8135594 H 6.3050847 c -0.9030507,0 -1.6271187,0.7322035 -1.6271187,1.6271187 V 17.694916 c 0,0.894915 0.7322035,1.627118 1.6271187,1.627118 H 17.694916 c 0.894915,0 1.627118,-0.732203 1.627118,-1.627118 V 13.22034 c 0,-0.447458 -0.366102,-0.81356 -0.813559,-0.81356 -0.447458,0 -0.813559,0.366102 -0.813559,0.81356 v 3.661016 c 0,0.447457 -0.366103,0.81356 -0.81356,0.81356 z"
     id="path4"
     inkscape:connector-curvature="0"
     sodipodi:nodetypes="sssssssssssssssssss"
     style="fill:#9fb3c8;fill-opacity:1;stroke:#9fb3c8;stroke-width:0.56470591;stroke-miterlimit:4;stroke-dasharray:none;stroke-opacity:1" />
  <path
     inkscape:connector-curvature="0"
     d="m 13.627118,5.4915256 c 0,0.4474577 0.366102,0.8135594 0.81356,0.8135594 h 2.107118 l -6.996341,6.996342 c -0.3172876,0.317288 -0.3172882,0.82983 0,1.147118 0.3172882,0.317288 0.82983,0.317288 1.147118,0 l 6.996343,-6.9963414 v 2.1071187 c 0,0.4474577 0.366101,0.8135597 0.813559,0.8135597 0.447457,0 0.813559,-0.366102 0.813559,-0.8135597 V 5.4915256 c 0,-0.4474576 -0.366102,-0.8135593 -0.813559,-0.8135593 h -4.067797 c -0.447458,0 -0.81356,0.3661017 -0.81356,0.8135593 z"
     id="path4-3"
     sodipodi:nodetypes="sscssscsssssss"
     style="fill:#486581;fill-opacity:1;stroke:#486581;stroke-width:0.56470591;stroke-miterlimit:4;stroke-dasharray:none;stroke-opacity:1" />
</svg>
