<?xml version="1.0" encoding="UTF-8" standalone="no"?>
<svg
   xmlns:dc="http://purl.org/dc/elements/1.1/"
   xmlns:cc="http://creativecommons.org/ns#"
   xmlns:rdf="http://www.w3.org/1999/02/22-rdf-syntax-ns#"
   xmlns:svg="http://www.w3.org/2000/svg"
   xmlns="http://www.w3.org/2000/svg"
   xmlns:sodipodi="http://sodipodi.sourceforge.net/DTD/sodipodi-0.dtd"
   xmlns:inkscape="http://www.inkscape.org/namespaces/inkscape"
   height="24"
   viewBox="0 0 24 24"
   width="24"
   version="1.1"
   id="svg6"
   sodipodi:docname="grid-view-dark.svg"
   inkscape:version="1.0 (b51213c273, 2020-08-10)">
  <metadata
     id="metadata12">
    <rdf:RDF>
      <cc:Work
         rdf:about="">
        <dc:format>image/svg+xml</dc:format>
        <dc:type
           rdf:resource="http://purl.org/dc/dcmitype/StillImage" />
      </cc:Work>
    </rdf:RDF>
  </metadata>
  <defs
     id="defs10" />
  <sodipodi:namedview
     pagecolor="#ffffff"
     bordercolor="#666666"
     borderopacity="1"
     objecttolerance="10"
     gridtolerance="10"
     guidetolerance="10"
     inkscape:pageopacity="0"
     inkscape:pageshadow="2"
     inkscape:window-width="640"
     inkscape:window-height="480"
     id="namedview8"
     showgrid="false"
     inkscape:zoom="30"
     inkscape:cx="7.0523061"
     inkscape:cy="15.168752"
     inkscape:current-layer="svg6"
     inkscape:document-rotation="0" />
  <path
     d="m 3.486477,11.5 h 3.4054093 c 0.624325,0 1.1351363,-0.45 1.1351363,-1 V 6.5000002 c 0,-0.55 -0.5108113,-1 -1.1351363,-1 H 3.486477 c -0.624325,0 -1.1351363,0.45 -1.1351363,1 V 10.5 c 0,0.55 0.5108114,1 1.1351363,1 z m 0,7 h 3.4054093 c 0.624325,0 1.1351363,-0.45 1.1351363,-1 v -4 c 0,-0.55 -0.5108113,-1 -1.1351363,-1 H 3.486477 c -0.624325,0 -1.1351363,0.45 -1.1351363,1 v 4 c 0,0.55 0.5108114,1 1.1351363,1 z m 6.910818,0 h 3.40541 c 0.624325,0 1.135137,-0.45 1.135137,-1 v -4 c 0,-0.55 -0.510812,-1 -1.135137,-1 h -3.40541 c -0.6243246,0 -1.1351359,0.45 -1.1351359,1 v 4 c 0,0.55 0.5108113,1 1.1351359,1 z m 6.810818,0 h 3.40541 c 0.624325,0 1.135136,-0.45 1.135136,-1 v -4 c 0,-0.55 -0.510811,-1 -1.135136,-1 h -3.40541 c -0.624324,0 -1.135135,0.45 -1.135135,1 v 4 c 0,0.55 0.510811,1 1.135135,1 z m -6.810818,-7 h 3.40541 c 0.624325,0 1.135137,-0.45 1.135137,-1 V 6.5000002 c 0,-0.55 -0.510812,-1 -1.135137,-1 h -3.40541 c -0.6243246,0 -1.1351359,0.45 -1.1351359,1 V 10.5 c 0,0.55 0.5108113,1 1.1351359,1 z M 16.072978,6.5000002 V 10.5 c 0,0.55 0.510811,1 1.135135,1 h 3.40541 c 0.624325,0 1.135136,-0.45 1.135136,-1 V 6.5000002 c 0,-0.55 -0.510811,-1 -1.135136,-1 h -3.40541 c -0.624324,0 -1.135135,0.45 -1.135135,1 z"
     id="path4-6"
     style="fill:#829ab1;fill-opacity:1;stroke-width:1"
     sodipodi:nodetypes="ssssssssssssssssssssssssssssssssssssssssssssssssssssss" />
  <path
     d="M0 0h24v24H0V0z"
     fill="none"
     id="path2" />
  <path
     d="m 3.486477,11.5 h 3.405409 c 0.624325,0 1.1351371,-0.45 1.1351371,-1 V 6.5000003 c 0,-0.55 -0.5108121,-1 -1.1351371,-1 H 3.486477 c -0.624325,0 -1.135136,0.45 -1.135136,1 V 10.5 c 0,0.55 0.510811,1 1.135136,1 z"
     id="path4"
     style="stroke-width:1;fill:#486581;fill-opacity:1"
     sodipodi:nodetypes="sssssssss" />
</svg>
