<?xml version="1.0" encoding="UTF-8" standalone="no"?>
<svg
   xmlns:dc="http://purl.org/dc/elements/1.1/"
   xmlns:cc="http://creativecommons.org/ns#"
   xmlns:rdf="http://www.w3.org/1999/02/22-rdf-syntax-ns#"
   xmlns:svg="http://www.w3.org/2000/svg"
   xmlns="http://www.w3.org/2000/svg"
   xmlns:sodipodi="http://sodipodi.sourceforge.net/DTD/sodipodi-0.dtd"
   xmlns:inkscape="http://www.inkscape.org/namespaces/inkscape"
   version="1.1"
   width="24"
   height="24"
   viewBox="0 0 24 24"
   id="svg4"
   sodipodi:docname="interface-theme-dark.svg"
   inkscape:version="0.92.5 (2060ec1f9f, 2020-04-08)">
  <metadata
     id="metadata10">
    <rdf:RDF>
      <cc:Work
         rdf:about="">
        <dc:format>image/svg+xml</dc:format>
        <dc:type
           rdf:resource="http://purl.org/dc/dcmitype/StillImage" />
        <dc:title></dc:title>
      </cc:Work>
    </rdf:RDF>
  </metadata>
  <defs
     id="defs8" />
  <sodipodi:namedview
     pagecolor="#ffffff"
     bordercolor="#666666"
     borderopacity="1"
     objecttolerance="10"
     gridtolerance="10"
     guidetolerance="10"
     inkscape:pageopacity="0"
     inkscape:pageshadow="2"
     inkscape:window-width="1920"
     inkscape:window-height="1004"
     id="namedview6"
     showgrid="false"
     inkscape:zoom="9.8333333"
     inkscape:cx="4.9934803"
     inkscape:cy="17.948242"
     inkscape:window-x="1920"
     inkscape:window-y="0"
     inkscape:window-maximized="1"
     inkscape:current-layer="svg4" />
  <path
     d="m 12,6.711382 c -2.9208229,0 -5.2886179,2.367795 -5.2886179,5.288618 0,2.920822 2.367795,5.288618 5.2886179,5.288618 2.920822,0 5.288618,-2.367796 5.288618,-5.288618 0,-2.9263686 -2.371063,-5.288618 -5.288618,-5.288618"
     id="path2"
     inkscape:connector-curvature="0"
     sodipodi:nodetypes="csssc"
     style="fill:#829ab1;fill-opacity:1;stroke-width:0.88143635" />
  <path
     id="circle924"
     style="fill:#486581;fill-opacity:1;stroke-width:0.75529426"
     d="m 17.360721,17.360721 a 1.5105885,1.5105885 0 0 1 2.136294,0 1.5105885,1.5105885 0 0 1 0,2.136294 1.5105885,1.5105885 0 0 1 -2.136294,0 1.5105885,1.5105885 0 0 1 0,-2.136294 z M 4.5029826,4.5029834 a 1.5105885,1.5105885 0 0 1 2.1362949,-10e-8 1.5105885,1.5105885 0 0 1 0,2.1362948 1.5105885,1.5105885 0 0 1 -2.1362949,0 1.5105885,1.5105885 0 0 1 0,-2.1362947 z M 11.999999,19.581205 a 1.5105885,1.5105885 0 0 1 1.510588,1.510589 1.5105885,1.5105885 0 0 1 -1.510588,1.510589 1.5105885,1.5105885 0 0 1 -1.510588,-1.510589 1.5105885,1.5105885 0 0 1 1.510588,-1.510589 z m 0,-18.1835873 A 1.5105885,1.5105885 0 0 1 13.510587,2.9082058 1.5105885,1.5105885 0 0 1 11.999999,4.4187942 1.5105885,1.5105885 0 0 1 10.489411,2.9082061 1.5105885,1.5105885 0 0 1 11.999999,1.3976177 Z M 6.6392781,17.360721 a 1.5105885,1.5105885 0 0 1 0,2.136294 1.5105885,1.5105885 0 0 1 -2.136295,0 1.5105885,1.5105885 0 0 1 3e-7,-2.136294 1.5105885,1.5105885 0 0 1 2.1362947,0 z M 19.497015,4.5029831 a 1.5105885,1.5105885 0 0 1 0,2.136295 1.5105885,1.5105885 0 0 1 -2.136294,0 1.5105885,1.5105885 0 0 1 0,-2.1362948 1.5105885,1.5105885 0 0 1 2.136294,-2e-7 z M 4.4187955,12 A 1.5105885,1.5105885 0 0 1 2.9082069,13.510588 1.5105885,1.5105885 0 0 1 1.3976181,12 1.5105885,1.5105885 0 0 1 2.9082066,10.489412 1.5105885,1.5105885 0 0 1 4.4187955,12 Z M 22.602383,12 A 1.5105885,1.5105885 0 0 1 21.091794,13.510588 1.5105885,1.5105885 0 0 1 19.581205,12 1.5105885,1.5105885 0 0 1 21.091794,10.489412 1.5105885,1.5105885 0 0 1 22.602383,12 Z"
     inkscape:connector-curvature="0" />
</svg>
