<?xml version="1.0" encoding="UTF-8" standalone="no"?>
<svg
   xmlns:dc="http://purl.org/dc/elements/1.1/"
   xmlns:cc="http://creativecommons.org/ns#"
   xmlns:rdf="http://www.w3.org/1999/02/22-rdf-syntax-ns#"
   xmlns:svg="http://www.w3.org/2000/svg"
   xmlns="http://www.w3.org/2000/svg"
   xmlns:sodipodi="http://sodipodi.sourceforge.net/DTD/sodipodi-0.dtd"
   xmlns:inkscape="http://www.inkscape.org/namespaces/inkscape"
   viewBox="0 0 24 24"
   class="icon-refresh"
   version="1.1"
   id="svg905"
   sodipodi:docname="refresh-dark.svg"
   inkscape:version="0.92.5 (2060ec1f9f, 2020-04-08)">
  <metadata
     id="metadata911">
    <rdf:RDF>
      <cc:Work
         rdf:about="">
        <dc:format>image/svg+xml</dc:format>
        <dc:type
           rdf:resource="http://purl.org/dc/dcmitype/StillImage" />
        <dc:title />
      </cc:Work>
    </rdf:RDF>
  </metadata>
  <defs
     id="defs909" />
  <sodipodi:namedview
     pagecolor="#ffffff"
     bordercolor="#666666"
     borderopacity="1"
     objecttolerance="10"
     gridtolerance="10"
     guidetolerance="10"
     inkscape:pageopacity="0"
     inkscape:pageshadow="2"
     inkscape:window-width="1920"
     inkscape:window-height="1004"
     id="namedview907"
     showgrid="false"
     inkscape:zoom="23.599689"
     inkscape:cx="4.5152058"
     inkscape:cy="14.646989"
     inkscape:window-x="1920"
     inkscape:window-y="0"
     inkscape:window-maximized="1"
     inkscape:current-layer="svg905" />
  <path
     style="fill:#829ab1;fill-opacity:1;stroke-width:1.03815663"
     d="M 12,1.5586005 C 6.2992884,1.5583269 1.6777717,6.2331454 1.6776521,12 1.6777716,17.766854 6.2992883,22.441674 12,22.4414 17.700711,22.441674 22.322228,17.766854 22.322348,12 22.322228,6.2331455 17.700711,1.5583269 12,1.5586005 Z M 7.4662858,5.3565377 c 0.2265891,-0.02258 0.4606931,-0.013461 0.6908889,0.027323 0.4603915,0.081569 0.9069004,0.2912716 1.2627263,0.6401456 l 0.00195,0.00195 C 12.684109,4.6343414 16.611519,5.9177499 18.097,9.310611 c 0.292068,0.615197 0.325834,1.390371 0.0644,1.988745 -0.119063,0.272518 -0.375022,0.364166 -0.562078,0.558175 0.612206,0.440701 1.077319,1.052847 1.077319,1.850177 v 2.570341 0.0098 c -0.014,0.996555 -0.678929,1.860404 -1.493025,2.19562 -0.814095,0.335217 -1.891861,0.190323 -2.603518,-0.507432 -3.26094,1.393892 -7.1888098,0.112934 -8.6770953,-3.278795 C 5.6115809,14.082226 5.5773759,13.306357 5.8385986,12.708454 5.958903,12.433093 6.2189083,12.341603 6.4084843,12.146374 5.7928607,11.706061 5.3233594,11.092276 5.3233594,10.292295 V 7.7219537 7.7121954 C 5.3373585,6.71564 6.0022857,5.8517901 6.8163819,5.5165741 7.0199059,5.4327698 7.2396967,5.3791179 7.4662858,5.3565377 Z m 0.9699768,4.0711699 v 0.161988 h 0.1639397 z m 6.9635354,4.9825964 0.16394,0.16394 v -0.16394 z"
     id="circle901"
     inkscape:connector-curvature="0"
     sodipodi:nodetypes="cccccsscccscsccsccccscccscccccccc" />
  <path
     d="M 9.0302313,7.8269605 A 5.1032232,5.1032232 0 0 1 16.6936,9.960415 0.85338181,0.85338181 0 1 1 15.131912,10.64312 3.4135273,3.4135273 0 0 0 10.267635,9.0558302 l 0.631502,0.6315026 A 0.85338181,0.85338181 0 0 1 10.293236,11.146617 H 7.733091 A 0.85338181,0.85338181 0 0 1 6.8797092,10.293234 V 7.7330885 A 0.85338181,0.85338181 0 0 1 8.3304583,7.1357212 Z m 4.7021337,7.1172045 -0.631502,-0.631503 a 0.85338181,0.85338181 0 0 1 0.605901,-1.459283 h 2.560144 a 0.85338181,0.85338181 0 0 1 0.853383,0.853381 v 2.560146 a 0.85338181,0.85338181 0 0 1 -1.450749,0.597368 L 14.969769,16.173035 A 5.1032232,5.1032232 0 0 1 7.3064,14.048114 0.85338181,0.85338181 0 1 1 8.8680888,13.365409 3.4135273,3.4135273 0 0 0 13.732365,14.944165 Z"
     id="path903"
     inkscape:connector-curvature="0"
     style="fill:#486581;stroke-width:0.35465866;stroke-miterlimit:4;stroke-dasharray:none" />
</svg>
