<?xml version="1.0" encoding="UTF-8" standalone="no"?>
<svg
   xmlns:dc="http://purl.org/dc/elements/1.1/"
   xmlns:cc="http://creativecommons.org/ns#"
   xmlns:rdf="http://www.w3.org/1999/02/22-rdf-syntax-ns#"
   xmlns:svg="http://www.w3.org/2000/svg"
   xmlns="http://www.w3.org/2000/svg"
   id="svg6"
   version="1.1"
   width="24"
   viewBox="0 0 24 24"
   height="24">
  <metadata
     id="metadata12">
    <rdf:RDF>
      <cc:Work
         rdf:about="">
        <dc:format>image/svg+xml</dc:format>
        <dc:type
           rdf:resource="http://purl.org/dc/dcmitype/StillImage" />
        <dc:title></dc:title>
      </cc:Work>
    </rdf:RDF>
  </metadata>
  <defs
     id="defs10" />
  <path
     style="fill:none;stroke-width:0.92372882"
     id="path2"
     d="M 0.91525424,0.91525424 H 23.084746 V 23.084746 H 0.91525424 Z" />
  <path
     style="fill:#829ab1;fill-opacity:1;stroke-width:0.92372882"
     id="path4"
     d="M 12,5.0720339 C 7.3813559,5.0720339 3.4370339,7.9448305 1.8389831,12 3.4370339,16.055169 7.3813559,18.927966 12,18.927966 16.618644,18.927966 20.562966,16.055169 22.161017,12 20.562966,7.9448305 16.618644,5.0720339 12,5.0720339 Z M 12,16.618644 C 9.4505085,16.618644 7.3813559,14.549492 7.3813559,12 7.3813559,9.4505085 9.4505085,7.3813559 12,7.3813559 c 2.549492,0 4.618644,2.0691526 4.618644,4.6186441 0,2.549492 -2.069152,4.618644 -4.618644,4.618644 z" />
  <path
     d="m 12,9.2288136 c -1.30635,0 -2.7711864,1.4648364 -2.7711864,2.7711864 0,1.30635 1.4648364,2.771186 2.7711864,2.771186 1.30635,0 2.771186,-1.237796 2.771186,-2.771186 0,-1.53339 -1.464836,-2.7711864 -2.771186,-2.7711864 z"
     id="use857"
     style="fill:#486581;fill-opacity:1;stroke-width:0.92372882" />
</svg>
