<?xml version="1.0" encoding="UTF-8" standalone="no"?>
<svg
   xmlns:dc="http://purl.org/dc/elements/1.1/"
   xmlns:cc="http://creativecommons.org/ns#"
   xmlns:rdf="http://www.w3.org/1999/02/22-rdf-syntax-ns#"
   xmlns:svg="http://www.w3.org/2000/svg"
   xmlns="http://www.w3.org/2000/svg"
   xmlns:sodipodi="http://sodipodi.sourceforge.net/DTD/sodipodi-0.dtd"
   xmlns:inkscape="http://www.inkscape.org/namespaces/inkscape"
   viewBox="0 0 24 24"
   class="icon-security-check"
   version="1.1"
   id="svg6"
   sodipodi:docname="role-dark.svg"
   inkscape:version="0.92.5 (2060ec1f9f, 2020-04-08)">
  <metadata
     id="metadata12">
    <rdf:RDF>
      <cc:Work
         rdf:about="">
        <dc:format>image/svg+xml</dc:format>
        <dc:type
           rdf:resource="http://purl.org/dc/dcmitype/StillImage" />
        <dc:title></dc:title>
      </cc:Work>
    </rdf:RDF>
  </metadata>
  <defs
     id="defs10" />
  <sodipodi:namedview
     pagecolor="#ffffff"
     bordercolor="#666666"
     borderopacity="1"
     objecttolerance="10"
     gridtolerance="10"
     guidetolerance="10"
     inkscape:pageopacity="0"
     inkscape:pageshadow="2"
     inkscape:window-width="1920"
     inkscape:window-height="1003"
     id="namedview8"
     showgrid="false"
     inkscape:zoom="9.8333333"
     inkscape:cx="12.20339"
     inkscape:cy="13.525424"
     inkscape:window-x="1920"
     inkscape:window-y="0"
     inkscape:window-maximized="1"
     inkscape:current-layer="svg6" />
  <path
     class="primary"
     d="M4 4l8-2 8 2v9.06a8 8 0 0 1-4.42 7.15L12 22l-3.58-1.79A8 8 0 0 1 4 13.06V4z"
     id="path2"
     style="fill:#9fb3c8;fill-opacity:1" />
  <path
     inkscape:connector-curvature="0"
     class="secondary"
     d="m 9.5255539,16.799927 a 1,1 0 0 1 -1.45,-1.05 l 0.47,-2.76 -2,-1.95 a 1,1 0 0 1 0.55,-1.7000004 l 2.77,-0.4 1.2300001,-2.509999 a 1,1 0 0 1 1.8,0 l 1.23,2.499999 2.77,0.4 a 1,1 0 0 1 0.55,1.7100004 l -2,1.95 0.47,2.76 a 1,1 0 0 1 -1.45,1.05 l -2.47,-1.3 z"
     id="path4"
     style="fill:#486581;fill-opacity:1" />
</svg>
